<svg width="24" height="24" viewBox="0 0 24 24" fill="none" xmlns="http://www.w3.org/2000/svg">
<path fill-rule="evenodd" clip-rule="evenodd" d="M22 12C22 17.5228 17.5228 22 12 22C6.47715 22 2 17.5228 2 12C2 6.47715 6.47715 2 12 2C17.5228 2 22 6.47715 22 12ZM24 12C24 18.6274 18.6274 24 12 24C5.37258 24 0 18.6274 0 12C0 5.37258 5.37258 0 12 0C18.6274 0 24 5.37258 24 12ZM18.5927 13.4966C18.1117 16.7058 15.3432 19.1667 12 19.1667C8.65677 19.1667 5.88832 16.7058 5.40731 13.4966C5.32545 12.9504 5.78003 12.5 6.33231 12.5H12H17.6677C18.22 12.5 18.6746 12.9504 18.5927 13.4966ZM20 12.5C20 16.9183 16.4183 20.5 12 20.5C7.58172 20.5 4 16.9183 4 12.5C4 11.6716 4.67055 11 5.49899 11H12L18.5004 11C19.3288 11 20 11.6716 20 12.5ZM17.3406 8.95739C17.5109 9.40242 18.0051 9.59384 18.4221 9.45483C18.8521 9.31149 19.1247 8.83981 18.9472 8.37579C18.494 7.19163 17.2096 6.5 16.0011 6.5C14.7926 6.5 13.5082 7.19163 13.055 8.37579C12.8775 8.83981 13.1501 9.31149 13.5801 9.45483C13.9971 9.59384 14.4913 9.40242 14.6616 8.95739C14.8212 8.54038 15.3745 8.16664 16.0011 8.16664C16.6277 8.16664 17.181 8.54038 17.3406 8.95739ZM10.4221 9.45483C10.0051 9.59384 9.51086 9.40242 9.34057 8.95739C9.181 8.54038 8.62774 8.16664 8.0011 8.16664C7.37446 8.16664 6.8212 8.54038 6.66163 8.95739C6.49133 9.40242 5.99711 9.59384 5.5801 9.45483C5.15006 9.31149 4.87746 8.83981 5.05502 8.37579C5.50815 7.19163 6.79264 6.5 8.0011 6.5C9.20956 6.5 10.494 7.19163 10.9472 8.37579C11.1247 8.83981 10.8521 9.31149 10.4221 9.45483Z" fill="white"/>
</svg>
