<svg width="24" height="24" viewBox="0 0 24 24" fill="none" xmlns="http://www.w3.org/2000/svg">
<path fill-rule="evenodd" clip-rule="evenodd" d="M12 22C17.5228 22 22 17.5228 22 12C22 6.47715 17.5228 2 12 2C6.47715 2 2 6.47715 2 12C2 17.5228 6.47715 22 12 22ZM12 24C18.6274 24 24 18.6274 24 12C24 5.37258 18.6274 0 12 0C5.37258 0 0 5.37258 0 12C0 18.6274 5.37258 24 12 24ZM8.5 10C9.32843 10 10 9.32843 10 8.5C10 7.67157 9.32843 7 8.5 7C7.67157 7 7 7.67157 7 8.5C7 9.32843 7.67157 10 8.5 10ZM15.5 10C16.3284 10 17 9.32843 17 8.5C17 7.67157 16.3284 7 15.5 7C14.6716 7 14 7.67157 14 8.5C14 9.32843 14.6716 10 15.5 10ZM6.94174 13.6637C6.75599 13.1436 6.18377 12.8725 5.66366 13.0583C5.14355 13.244 4.8725 13.8163 5.05826 14.3364C6.07635 17.187 9.06474 19 12 19C14.9352 19 17.9236 17.187 18.9417 14.3364C19.1275 13.8163 18.8564 13.244 18.3363 13.0583C17.8162 12.8725 17.244 13.1436 17.0583 13.6637C16.3621 15.613 14.2076 17 12 17C9.79239 17 7.63793 15.613 6.94174 13.6637Z" fill="white"/>
</svg>
