<svg width="24" height="24" viewBox="0 0 24 24" fill="none" xmlns="http://www.w3.org/2000/svg">
<path fill-rule="evenodd" clip-rule="evenodd" d="M12 22C17.5228 22 22 17.5228 22 12C22 6.47715 17.5228 2 12 2C6.47715 2 2 6.47715 2 12C2 17.5228 6.47715 22 12 22ZM12 24C18.6274 24 24 18.6274 24 12C24 5.37258 18.6274 0 12 0C5.37258 0 0 5.37258 0 12C0 18.6274 5.37258 24 12 24ZM8.5 10C9.32843 10 10 9.32843 10 8.5C10 7.67157 9.32843 7 8.5 7C7.67157 7 7 7.67157 7 8.5C7 9.32843 7.67157 10 8.5 10ZM15.5 10C16.3284 10 17 9.32843 17 8.5C17 7.67157 16.3284 7 15.5 7C14.6716 7 14 7.67157 14 8.5C14 9.32843 14.6716 10 15.5 10ZM17.0583 17.3363C17.244 17.8564 17.8162 18.1275 18.3363 17.9417C18.8564 17.756 19.1275 17.1837 18.9417 16.6636C17.9237 13.813 14.9353 12 12 12C9.06475 12 6.07635 13.813 5.05826 16.6636C4.87251 17.1837 5.14356 17.756 5.66367 17.9417C6.18377 18.1275 6.75599 17.8564 6.94174 17.3363C7.63794 15.387 9.7924 14 12 14C14.2076 14 16.3621 15.387 17.0583 17.3363Z" fill="white"/>
</svg>
