<svg width="24" height="24" viewBox="0 0 24 24" fill="none" xmlns="http://www.w3.org/2000/svg">
<path fill-rule="evenodd" clip-rule="evenodd" d="M12 22C17.5229 22 22 17.5228 22 12C22 6.47716 17.5229 2 12 2C6.47715 2 2 6.47716 2 12C2 17.5228 6.47715 22 12 22ZM12 24C18.6274 24 24 18.6274 24 12C24 5.37259 18.6274 0 12 0C5.37258 0 0 5.37259 0 12C0 18.6274 5.37258 24 12 24ZM8.5 11C9.32843 11 10 10.3284 10 9.5C10 9.40379 9.99094 9.30971 9.97363 9.21854C10.3518 9.33281 10.7579 9.13275 10.8947 8.7569C11.0363 8.36766 10.8357 7.93727 10.4464 7.79561L6.2178 6.25652C5.82857 6.11485 5.39819 6.31554 5.25652 6.70477C5.11485 7.09401 5.31554 7.52438 5.70477 7.66606L7.55123 8.33812C7.21477 8.61319 7 9.03151 7 9.5C7 10.3284 7.67157 11 8.5 11ZM15.5 11C16.3284 11 17 10.3284 17 9.5C17 9.05289 16.8044 8.65147 16.4941 8.37666L18.4464 7.66606C18.8357 7.52438 19.0363 7.09401 18.8947 6.70477C18.753 6.31554 18.3226 6.11485 17.9334 6.25652L13.7048 7.79561C13.3155 7.93727 13.1148 8.36766 13.2565 8.7569C13.3745 9.08118 13.693 9.27458 14.021 9.24818C14.0072 9.33006 14 9.41418 14 9.5C14 10.3284 14.6716 11 15.5 11ZM17.0583 17.3363C17.244 17.8564 17.8162 18.1275 18.3363 17.9417C18.8564 17.756 19.1275 17.1837 18.9417 16.6636C17.9237 13.813 14.9353 12 12 12C9.06475 12 6.07635 13.813 5.05826 16.6636C4.87251 17.1837 5.14355 17.756 5.66367 17.9417C6.18377 18.1275 6.75599 17.8564 6.94175 17.3363C7.63794 15.387 9.7924 14 12 14C14.2076 14 16.3621 15.387 17.0583 17.3363Z" fill="white"/>
</svg>
