<svg width="24" height="24" viewBox="0 0 24 24" fill="none" xmlns="http://www.w3.org/2000/svg">
<path fill-rule="evenodd" clip-rule="evenodd" d="M12 22C17.5229 22 22 17.5228 22 12C22 6.47716 17.5229 2 12 2C6.47715 2 2 6.47716 2 12C2 17.5228 6.47715 22 12 22ZM12 24C18.6274 24 24 18.6274 24 12C24 5.37259 18.6274 0 12 0C5.37258 0 0 5.37259 0 12C0 18.6274 5.37258 24 12 24ZM8.5 10C9.32843 10 10 9.32843 10 8.5C10 7.67157 9.32843 7 8.5 7C7.67157 7 7 7.67157 7 8.5C7 9.32843 7.67157 10 8.5 10ZM15.5 10C16.3284 10 17 9.32843 17 8.5C17 7.67157 16.3284 7 15.5 7C14.6716 7 14 7.67157 14 8.5C14 9.32843 14.6716 10 15.5 10ZM6.93969 15.7622C6.42072 15.9511 6.15313 16.525 6.34202 17.0439C6.53091 17.5629 7.10476 17.8305 7.62373 17.6416L17.0207 14.2214C17.5396 14.0325 17.8072 13.4587 17.6183 12.9397C17.4294 12.4207 16.8556 12.1531 16.3366 12.342L6.93969 15.7622Z" fill="white"/>
</svg>
